<svg xmlns="http://www.w3.org/2000/svg" viewBox="0 0 720 960" role="img" aria-labelledby="aboutTitle aboutDesc">
  <title id="aboutTitle">Kaermaxc 自画像插画</title>
  <desc id="aboutDesc">风格化的插画展示一只橘猫与向日葵、鸢尾花的组合，致敬用户上传的作品。</desc>
  <defs>
    <linearGradient id="bgGradient" x1="0" x2="0" y1="0" y2="1">
      <stop offset="0%" stop-color="#f0b90b" />
      <stop offset="100%" stop-color="#f59e0b" />
    </linearGradient>
    <linearGradient id="coatGradient" x1="0" x2="1" y1="0" y2="1">
      <stop offset="0%" stop-color="#f59e0b" />
      <stop offset="100%" stop-color="#d97706" />
    </linearGradient>
    <linearGradient id="suitGradient" x1="0" x2="0" y1="0" y2="1">
      <stop offset="0%" stop-color="#1e3a8a" />
      <stop offset="100%" stop-color="#0f172a" />
    </linearGradient>
    <linearGradient id="flowerGradient" x1="0" x2="1" y1="0" y2="1">
      <stop offset="0%" stop-color="#fde047" />
      <stop offset="100%" stop-color="#f59e0b" />
    </linearGradient>
    <linearGradient id="irisGradient" x1="0" x2="0" y1="0" y2="1">
      <stop offset="0%" stop-color="#38bdf8" />
      <stop offset="100%" stop-color="#1d4ed8" />
    </linearGradient>
  </defs>
  <rect width="720" height="960" fill="url(#bgGradient)" />
  <g opacity="0.18">
    <circle cx="120" cy="140" r="110" fill="#fef3c7" />
    <circle cx="620" cy="220" r="160" fill="#fef3c7" />
    <circle cx="260" cy="420" r="140" fill="#fef3c7" />
    <circle cx="520" cy="640" r="170" fill="#fef3c7" />
  </g>
  <g transform="translate(120 260)">
    <path d="M240 120c-60 0-116 48-122 108l-12 132c-5 52 33 100 85 108 20 3 40 3 60 0 52-8 90-56 85-108l-12-132c-6-60-62-108-122-108z" fill="url(#coatGradient)" stroke="#92400e" stroke-width="6" stroke-linejoin="round" />
    <path d="M240 46c-74 0-134 60-134 134s60 134 134 134 134-60 134-134S314 46 240 46z" fill="#f97316" stroke="#c2410c" stroke-width="6" stroke-linejoin="round" />
    <path d="M170 122c0-34 28-62 62-62s62 28 62 62" fill="none" stroke="#fb923c" stroke-width="16" stroke-linecap="round" />
    <path d="M146 112 116 60c-22 12-40 28-52 48 12 34 36 60 68 74z" fill="#f97316" stroke="#c2410c" stroke-width="6" stroke-linejoin="round" />
    <path d="M334 112 364 60c22 12 40 28 52 48-12 34-36 60-68 74z" fill="#f97316" stroke="#c2410c" stroke-width="6" stroke-linejoin="round" />
    <ellipse cx="192" cy="182" rx="24" ry="32" fill="#0f172a" />
    <ellipse cx="288" cy="182" rx="24" ry="32" fill="#0f172a" />
    <circle cx="196" cy="176" r="8" fill="#bae6fd" />
    <circle cx="292" cy="176" r="8" fill="#bae6fd" />
    <path d="M212 244c18 18 38 18 56 0" fill="none" stroke="#7f1d1d" stroke-width="8" stroke-linecap="round" />
    <path d="M210 270c20 14 40 14 60 0" fill="#fee2e2" stroke="#f97316" stroke-width="4" stroke-linecap="round" />
  </g>
  <g transform="translate(60 520)">
    <path d="M90 420c60-120 150-180 260-180s200 60 260 180H90z" fill="url(#suitGradient)" stroke="#1e40af" stroke-width="8" stroke-linejoin="round" />
    <path d="M220 260c24-32 56-48 96-48s72 16 96 48l-32 160H252l-32-160z" fill="#1e3a8a" opacity="0.75" />
  </g>
  <g transform="translate(40 420)">
    <g transform="translate(0 0)">
      <circle cx="120" cy="120" r="98" fill="url(#flowerGradient)" stroke="#ca8a04" stroke-width="6" />
      <circle cx="120" cy="120" r="42" fill="#fcd34d" stroke="#ca8a04" stroke-width="4" />
      <path d="M120 70c12 16 16 32 0 50-16-18-12-34 0-50z" fill="#f59e0b" />
    </g>
    <g transform="translate(480 40)">
      <circle cx="120" cy="120" r="98" fill="url(#flowerGradient)" stroke="#ca8a04" stroke-width="6" />
      <circle cx="120" cy="120" r="42" fill="#fcd34d" stroke="#ca8a04" stroke-width="4" />
      <path d="M120 70c12 16 16 32 0 50-16-18-12-34 0-50z" fill="#f59e0b" />
    </g>
    <g transform="translate(160 200)">
      <path d="M80 0c24 16 36 36 32 60-4 24-20 44-48 60-28-16-44-36-48-60-4-24 8-44 32-60z" fill="url(#irisGradient)" stroke="#1e3a8a" stroke-width="6" />
      <path d="M80 20c10 6 16 14 14 24-2 10-10 18-24 26-14-8-22-16-24-26-2-10 4-18 14-24z" fill="#dbeafe" />
    </g>
    <g transform="translate(340 160)">
      <path d="M80 0c24 16 36 36 32 60-4 24-20 44-48 60-28-16-44-36-48-60-4-24 8-44 32-60z" fill="url(#irisGradient)" stroke="#1e3a8a" stroke-width="6" />
      <path d="M80 20c10 6 16 14 14 24-2 10-10 18-24 26-14-8-22-16-24-26-2-10 4-18 14-24z" fill="#dbeafe" />
    </g>
  </g>
</svg>
